<svg xmlns="http://www.w3.org/2000/svg" width="270" height="80" viewBox="0 0 270 80" fill="none"><mask id="mask0_5_365" style="mask-type:alpha" maskUnits="userSpaceOnUse" x="0" y="0" width="270" height="80"><rect width="270" height="80" fill="#6EC1E4"></rect></mask><g mask="url(#mask0_5_365)"><path opacity="0.2" d="M618.775 62.38C227.022 115.36 113.281 41.98 3.38251 62.38C-163.194 93.46 -290 57.82 -290 57.82V22H1631.3V57.82C1631.3 57.82 1511.99 73.48 1448.97 75.4C1385.95 77.38 1328.31 68.02 1303.33 62.14C1258.57 51.76 1141.94 27.22 1045.11 24.82C948.278 22.42 656.048 57.4 618.775 62.38Z" fill="#6EC1E4"></path><path opacity="0.4" d="M1120.23 62.38C1032.82 62.38 971.91 48.46 872.194 38.92C817.245 33.7 583.423 32.86 384.184 62.38C184.945 91.9 208.001 41.74 97.5262 62.38C-67.7056 92.98 -290 45.88 -290 45.88V22H1631.3V43.9C1631.3 43.9 1577.12 32.8 1454.35 32.8C1266.64 32.86 1200.35 62.38 1120.23 62.38Z" fill="#6EC1E4"></path><path d="M1181.91 39.34C797.648 4.84 670.842 78.64 422.802 51.04C174.955 23.08 174.955 25.24 65.0562 34.36C-44.0736 43.48 -35.812 48.94 -117.275 53.5C-235.051 60.22 -290 22 -290 22H1631.3C1631.3 22 1612.28 46.54 1470.68 50.86C1329.08 55.18 1303.91 50.2 1181.91 39.34Z" fill="#98D4EC"></path><path d="M1181.91 5.02255C797.648 39.5226 670.842 -34.2775 422.802 -6.67745C174.955 21.2825 174.955 19.1225 65.0562 10.0025C-44.0736 0.882547 -35.812 -4.57745 -117.275 -9.13745C-235.051 -15.8575 -290 22.3625 -290 22.3625H1631.3C1631.3 22.3625 1612.28 -2.17745 1470.68 -6.49745C1329.08 -10.8175 1303.91 -5.83745 1181.91 5.02255Z" fill="#98D4EC"></path></g></svg>